<svg width="820" height="312" viewBox="0 0 820 312" fill="none" xmlns="http://www.w3.org/2000/svg">
<rect width="820" height="312" fill="#FFEFE0"/>
<path d="M345.339 166.227H352.957V133.906H345.339V166.227ZM349.169 129.318C351.589 129.318 353.567 127.467 353.567 125.194C353.567 122.901 351.589 121.049 349.169 121.049C346.728 121.049 344.75 122.901 344.75 125.194C344.75 127.467 346.728 129.318 349.169 129.318ZM363.963 147.289C363.963 142.617 366.783 139.924 370.802 139.924C374.737 139.924 377.093 142.512 377.093 146.826V166.227H384.711V145.647C384.732 137.904 380.313 133.485 373.643 133.485C368.803 133.485 365.478 135.8 364.005 139.398H363.626V133.906H356.346V166.227H363.963V147.289ZM404.15 133.906H397.774V126.162H390.157V133.906H385.569V139.798H390.157V157.768C390.115 163.849 394.533 166.837 400.257 166.669C402.424 166.606 403.918 166.185 404.739 165.911L403.455 159.956C403.035 160.061 402.172 160.251 401.225 160.251C399.31 160.251 397.774 159.577 397.774 156.505V139.798H404.15V133.906ZM420.038 166.858C427.571 166.858 432.748 163.176 434.094 157.557L426.982 156.758C425.951 159.493 423.426 160.924 420.143 160.924C415.219 160.924 411.958 157.684 411.894 152.149H434.41V149.814C434.41 138.472 427.592 133.485 419.638 133.485C410.379 133.485 404.34 140.282 404.34 150.256C404.34 160.398 410.295 166.858 420.038 166.858ZM411.916 147.015C412.147 142.891 415.198 139.419 419.743 139.419C424.12 139.419 427.066 142.617 427.108 147.015H411.916ZM450.466 179.021C459.199 179.021 465.638 175.023 465.638 166.753V133.906H458.126V139.25H457.705C456.548 136.915 454.128 133.485 448.425 133.485C440.955 133.485 435.084 139.335 435.084 149.961C435.084 160.503 440.955 165.764 448.404 165.764C453.938 165.764 456.527 162.797 457.705 160.419H458.084V166.543C458.084 171.298 454.927 173.255 450.593 173.255C446.005 173.255 443.985 171.088 443.059 169.194L436.2 170.856C437.588 175.38 442.239 179.021 450.466 179.021ZM450.529 159.788C445.5 159.788 442.849 155.874 442.849 149.919C442.849 144.048 445.458 139.734 450.529 139.734C455.432 139.734 458.126 143.796 458.126 149.919C458.126 156.084 455.39 159.788 450.529 159.788ZM469 166.227H476.618V147.226C476.618 143.122 479.711 140.218 483.898 140.218C485.182 140.218 486.781 140.45 487.434 140.66V133.653C486.739 133.527 485.54 133.443 484.698 133.443C480.995 133.443 477.901 135.547 476.723 139.293H476.386V133.906H469V166.227ZM496.714 166.879C501.786 166.879 504.816 164.501 506.205 161.787H506.457V166.227H513.78V144.595C513.78 136.052 506.815 133.485 500.649 133.485C493.853 133.485 488.634 136.515 486.951 142.407L494.063 143.417C494.821 141.207 496.967 139.314 500.691 139.314C504.227 139.314 506.162 141.123 506.162 144.301V144.427C506.162 146.615 503.869 146.721 498.166 147.331C491.896 148.004 485.899 149.877 485.899 157.158C485.899 163.512 490.549 166.879 496.714 166.879ZM498.692 161.282C495.515 161.282 493.242 159.83 493.242 157.031C493.242 154.106 495.789 152.886 499.197 152.402C501.196 152.128 505.194 151.623 506.183 150.824V154.632C506.183 158.231 503.28 161.282 498.692 161.282ZM524.612 123.132H516.995V166.227H524.612V123.132Z" fill="black"/>
<path d="M298.138 141.197L312.551 155.609L305.345 162.815L290.932 148.403L298.138 141.197Z" fill="black"/>
<path d="M312.551 148.403L301.741 137.594L307.146 132.189C310.131 129.204 314.971 129.204 317.955 132.189L323.36 137.594L312.551 148.403Z" fill="black"/>
<path d="M326.963 141.197L334.169 148.403L319.757 162.815L312.551 155.609L326.963 141.197Z" fill="black"/>
<path d="M305.345 162.815C306.291 163.762 307.414 164.512 308.651 165.024C309.887 165.537 311.212 165.8 312.551 165.8C313.889 165.8 315.214 165.537 316.451 165.024C317.687 164.512 318.811 163.762 319.757 162.815L312.551 155.609L305.345 162.815Z" fill="black"/>
<path d="M299.532 199.516C301.167 199.516 302.022 198.637 302.314 198.027H302.388V199.296H303.828V193.122C303.828 190.144 301.558 189.802 300.362 189.802C298.946 189.802 297.336 190.291 296.603 191.999L297.97 192.487C298.287 191.804 299.038 191.072 300.411 191.072C301.735 191.072 302.388 191.773 302.388 192.975V193.024C302.388 193.72 301.68 193.658 299.971 193.878C298.233 194.104 296.335 194.488 296.335 196.636C296.335 198.466 297.751 199.516 299.532 199.516ZM299.752 198.222C298.605 198.222 297.775 197.71 297.775 196.709C297.775 195.611 298.776 195.269 299.898 195.123C300.508 195.05 302.144 194.879 302.388 194.586V195.904C302.388 197.075 301.46 198.222 299.752 198.222ZM309.576 199.491C311.65 199.491 313.017 198.222 313.261 196.563H311.821C311.553 197.588 310.698 198.198 309.576 198.198C307.867 198.198 306.769 196.782 306.769 194.61C306.769 192.487 307.892 191.096 309.576 191.096C310.845 191.096 311.601 191.877 311.821 192.731H313.261C313.017 190.974 311.528 189.802 309.551 189.802C307.013 189.802 305.329 191.804 305.329 194.659C305.329 197.466 306.94 199.491 309.576 199.491ZM318.486 199.491C320.56 199.491 321.927 198.222 322.171 196.563H320.731C320.463 197.588 319.609 198.198 318.486 198.198C316.778 198.198 315.679 196.782 315.679 194.61C315.679 192.487 316.802 191.096 318.486 191.096C319.755 191.096 320.512 191.877 320.731 192.731H322.171C321.927 190.974 320.438 189.802 318.462 189.802C315.923 189.802 314.239 191.804 314.239 194.659C314.239 197.466 315.85 199.491 318.486 199.491ZM327.518 199.491C329.422 199.491 330.813 198.54 331.252 197.124L329.861 196.734C329.495 197.71 328.647 198.198 327.518 198.198C325.828 198.198 324.663 197.106 324.596 195.098H331.399V194.488C331.399 190.998 329.324 189.802 327.372 189.802C324.834 189.802 323.15 191.804 323.15 194.684C323.15 197.563 324.809 199.491 327.518 199.491ZM324.596 193.854C324.693 192.396 325.724 191.096 327.372 191.096C328.934 191.096 329.934 192.267 329.934 193.854H324.596ZM339.54 192.023C339.089 190.693 338.076 189.802 336.221 189.802C334.244 189.802 332.78 190.925 332.78 192.511C332.78 193.805 333.549 194.671 335.269 195.074L336.831 195.44C337.777 195.66 338.222 196.111 338.222 196.758C338.222 197.563 337.368 198.222 336.026 198.222C334.848 198.222 334.11 197.716 333.854 196.709L332.487 197.051C332.823 198.643 334.134 199.491 336.05 199.491C338.228 199.491 339.711 198.302 339.711 196.685C339.711 195.379 338.893 194.555 337.222 194.147L335.831 193.805C334.72 193.53 334.22 193.158 334.22 192.438C334.22 191.633 335.074 191.047 336.221 191.047C337.478 191.047 337.997 191.743 338.247 192.389L339.54 192.023ZM347.83 192.023C347.378 190.693 346.365 189.802 344.51 189.802C342.534 189.802 341.069 190.925 341.069 192.511C341.069 193.805 341.838 194.671 343.559 195.074L345.121 195.44C346.066 195.66 346.512 196.111 346.512 196.758C346.512 197.563 345.658 198.222 344.315 198.222C343.138 198.222 342.399 197.716 342.143 196.709L340.776 197.051C341.112 198.643 342.424 199.491 344.34 199.491C346.518 199.491 348 198.302 348 196.685C348 195.379 347.183 194.555 345.511 194.147L344.12 193.805C343.009 193.53 342.509 193.158 342.509 192.438C342.509 191.633 343.363 191.047 344.51 191.047C345.767 191.047 346.286 191.743 346.536 192.389L347.83 192.023ZM349.481 199.296H350.921V189.924H349.481V199.296ZM350.213 188.362C350.774 188.362 351.238 187.923 351.238 187.386C351.238 186.849 350.774 186.41 350.213 186.41C349.652 186.41 349.188 186.849 349.188 187.386C349.188 187.923 349.652 188.362 350.213 188.362ZM353.066 199.296H354.457V197.856H354.628C354.945 198.369 355.555 199.491 357.361 199.491C359.704 199.491 361.339 197.612 361.339 194.635C361.339 191.682 359.704 189.802 357.337 189.802C355.507 189.802 354.945 190.925 354.628 191.413H354.506V186.801H353.066V199.296ZM354.481 194.61C354.481 192.511 355.409 191.096 357.166 191.096C358.997 191.096 359.9 192.633 359.9 194.61C359.9 196.612 358.972 198.198 357.166 198.198C355.433 198.198 354.481 196.734 354.481 194.61ZM364.295 186.801H362.855V199.296H364.295V186.801ZM370.174 199.491C372.078 199.491 373.469 198.54 373.908 197.124L372.517 196.734C372.151 197.71 371.303 198.198 370.174 198.198C368.484 198.198 367.319 197.106 367.252 195.098H374.055V194.488C374.055 190.998 371.98 189.802 370.028 189.802C367.489 189.802 365.805 191.804 365.805 194.684C365.805 197.563 367.465 199.491 370.174 199.491ZM367.252 193.854C367.349 192.396 368.38 191.096 370.028 191.096C371.59 191.096 372.59 192.267 372.59 193.854H367.252ZM386.732 189.924H388.196C388.129 188.039 386.39 186.63 383.974 186.63C381.582 186.63 379.703 188.021 379.703 190.12C379.703 191.804 380.923 192.804 382.875 193.366L384.413 193.805C385.731 194.171 386.902 194.635 386.902 195.879C386.902 197.246 385.584 198.149 383.852 198.149C382.363 198.149 381.045 197.49 380.923 196.075H379.361C379.508 198.125 381.167 199.516 383.852 199.516C386.732 199.516 388.367 197.929 388.367 195.904C388.367 193.561 386.146 192.804 384.852 192.463L383.583 192.121C382.656 191.877 381.167 191.389 381.167 190.046C381.167 188.851 382.265 187.972 383.925 187.972C385.438 187.972 386.585 188.692 386.732 189.924ZM397.635 189.924H396.073L393.486 197.393H393.389L390.802 189.924H389.24L392.706 199.296H394.17L397.635 189.924ZM402.442 199.491C404.346 199.491 405.737 198.54 406.177 197.124L404.785 196.734C404.419 197.71 403.571 198.198 402.442 198.198C400.752 198.198 399.587 197.106 399.52 195.098H406.323V194.488C406.323 190.998 404.248 189.802 402.296 189.802C399.758 189.802 398.074 191.804 398.074 194.684C398.074 197.563 399.733 199.491 402.442 199.491ZM399.52 193.854C399.618 192.396 400.649 191.096 402.296 191.096C403.858 191.096 404.859 192.267 404.859 193.854H399.52ZM409.266 186.801H407.826V199.296H409.266V186.801ZM415.292 189.924H413.291V187.679H411.851V189.924H410.435V191.145H411.851V197.002C411.851 198.637 413.169 199.418 414.389 199.418C414.926 199.418 415.267 199.321 415.463 199.247L415.17 197.954C415.048 197.978 414.853 198.027 414.535 198.027C413.901 198.027 413.291 197.832 413.291 196.612V191.145H415.292V189.924ZM420.599 199.491C422.503 199.491 423.894 198.54 424.333 197.124L422.942 196.734C422.576 197.71 421.728 198.198 420.599 198.198C418.909 198.198 417.744 197.106 417.677 195.098H424.48V194.488C424.48 190.998 422.405 189.802 420.453 189.802C417.915 189.802 416.231 191.804 416.231 194.684C416.231 197.563 417.89 199.491 420.599 199.491ZM417.677 193.854C417.774 192.396 418.805 191.096 420.453 191.096C422.015 191.096 423.015 192.267 423.015 193.854H417.677ZM433.935 199.491C436.01 199.491 437.376 198.222 437.62 196.563H436.18C435.912 197.588 435.058 198.198 433.935 198.198C432.227 198.198 431.128 196.782 431.128 194.61C431.128 192.487 432.251 191.096 433.935 191.096C435.204 191.096 435.961 191.877 436.18 192.731H437.62C437.376 190.974 435.888 189.802 433.911 189.802C431.373 189.802 429.689 191.804 429.689 194.659C429.689 197.466 431.299 199.491 433.935 199.491ZM442.845 199.491C445.384 199.491 447.092 197.563 447.092 194.659C447.092 191.73 445.384 189.802 442.845 189.802C440.307 189.802 438.599 191.73 438.599 194.659C438.599 197.563 440.307 199.491 442.845 199.491ZM442.845 198.198C440.917 198.198 440.039 196.538 440.039 194.659C440.039 192.78 440.917 191.096 442.845 191.096C444.773 191.096 445.652 192.78 445.652 194.659C445.652 196.538 444.773 198.198 442.845 198.198ZM448.603 199.296H450.043V193.439C450.043 192.066 451.043 191.096 452.166 191.096C453.258 191.096 454.021 191.81 454.021 192.878V199.296H455.485V193.195C455.485 191.987 456.242 191.096 457.56 191.096C458.585 191.096 459.463 191.639 459.463 193.024V199.296H460.903V193.024C460.903 190.821 459.719 189.802 458.048 189.802C456.705 189.802 455.723 190.419 455.241 191.389H455.143C454.68 190.388 453.862 189.802 452.63 189.802C451.409 189.802 450.506 190.388 450.116 191.389H449.994V189.924H448.603V199.296ZM462.849 202.811H464.289V197.856H464.411C464.728 198.369 465.338 199.491 467.144 199.491C469.487 199.491 471.122 197.612 471.122 194.635C471.122 191.682 469.487 189.802 467.12 189.802C465.289 189.802 464.728 190.925 464.411 191.413H464.24V189.924H462.849V202.811ZM464.264 194.61C464.264 192.511 465.192 191.096 466.949 191.096C468.779 191.096 469.682 192.633 469.682 194.61C469.682 196.612 468.755 198.198 466.949 198.198C465.216 198.198 464.264 196.734 464.264 194.61ZM476.439 199.491C478.977 199.491 480.685 197.563 480.685 194.659C480.685 191.73 478.977 189.802 476.439 189.802C473.9 189.802 472.192 191.73 472.192 194.659C472.192 197.563 473.9 199.491 476.439 199.491ZM476.439 198.198C474.511 198.198 473.632 196.538 473.632 194.659C473.632 192.78 474.511 191.096 476.439 191.096C478.367 191.096 479.245 192.78 479.245 194.659C479.245 196.538 478.367 198.198 476.439 198.198ZM483.636 193.658C483.636 192.023 484.649 191.096 486.028 191.096C487.364 191.096 488.175 191.968 488.175 193.439V199.296H489.615V193.341C489.615 190.949 488.34 189.802 486.443 189.802C485.027 189.802 484.148 190.437 483.709 191.389H483.587V189.924H482.196V199.296H483.636V193.658ZM495.489 199.491C497.392 199.491 498.783 198.54 499.223 197.124L497.831 196.734C497.465 197.71 496.617 198.198 495.489 198.198C493.798 198.198 492.633 197.106 492.566 195.098H499.369V194.488C499.369 190.998 497.295 189.802 495.342 189.802C492.804 189.802 491.12 191.804 491.12 194.684C491.12 197.563 492.78 199.491 495.489 199.491ZM492.566 193.854C492.664 192.396 493.695 191.096 495.342 191.096C496.904 191.096 497.905 192.267 497.905 193.854H492.566ZM502.312 193.658C502.312 192.023 503.325 191.096 504.704 191.096C506.04 191.096 506.852 191.968 506.852 193.439V199.296H508.291V193.341C508.291 190.949 507.016 189.802 505.119 189.802C503.703 189.802 502.825 190.437 502.385 191.389H502.263V189.924H500.872V199.296H502.312V193.658ZM514.311 189.924H512.31V187.679H510.87V189.924H509.454V191.145H510.87V197.002C510.87 198.637 512.188 199.418 513.408 199.418C513.945 199.418 514.287 199.321 514.482 199.247L514.189 197.954C514.067 197.978 513.872 198.027 513.555 198.027C512.92 198.027 512.31 197.832 512.31 196.612V191.145H514.311V189.924ZM522.26 192.023C521.809 190.693 520.796 189.802 518.941 189.802C516.964 189.802 515.5 190.925 515.5 192.511C515.5 193.805 516.269 194.671 517.989 195.074L519.551 195.44C520.497 195.66 520.943 196.111 520.943 196.758C520.943 197.563 520.088 198.222 518.746 198.222C517.568 198.222 516.83 197.716 516.574 196.709L515.207 197.051C515.543 198.643 516.855 199.491 518.77 199.491C520.949 199.491 522.431 198.302 522.431 196.685C522.431 195.379 521.614 194.555 519.942 194.147L518.551 193.805C517.44 193.53 516.94 193.158 516.94 192.438C516.94 191.633 517.794 191.047 518.941 191.047C520.198 191.047 520.717 191.743 520.967 192.389L522.26 192.023Z" fill="black"/>
</svg>
